<svg width="24" height="24" viewBox="0 0 24 24" fill="none" xmlns="http://www.w3.org/2000/svg">
<path d="M20.8 13.0002C20.6188 12.6859 20.3557 12.4269 20.0386 12.2507C19.7215 12.0746 19.3625 11.988 19 12.0002H17C16.4696 12.0002 15.9609 12.2109 15.5858 12.5859C15.2107 12.961 15 13.4697 15 14.0002C15 14.5306 15.2107 15.0393 15.5858 15.4144C15.9609 15.7894 16.4696 16.0002 17 16.0002H19C19.5304 16.0002 20.0391 16.2109 20.4142 16.5859C20.7893 16.961 21 17.4697 21 18.0002C21 18.5306 20.7893 19.0393 20.4142 19.4144C20.0391 19.7894 19.5304 20.0002 19 20.0002H17C16.6375 20.0124 16.2785 19.9258 15.9614 19.7496C15.6443 19.5735 15.3812 19.3144 15.2 19.0002M18 11V21M7 5C7 5.53043 6.78929 6.03914 6.41421 6.41421C6.03914 6.78929 5.53043 7 5 7C4.46957 7 3.96086 6.78929 3.58579 6.41421C3.21071 6.03914 3 5.53043 3 5C3 4.46957 3.21071 3.96086 3.58579 3.58579C3.96086 3.21071 4.46957 3 5 3C5.53043 3 6.03914 3.21071 6.41421 3.58579C6.78929 3.96086 7 4.46957 7 5ZM7 5H15M7 5V13C7 13.7956 7.31607 14.5587 7.87868 15.1213C8.44129 15.6839 9.20435 16 10 16H11M15 5C15 5.53043 15.2107 6.03914 15.5858 6.41421C15.9609 6.78929 16.4696 7 17 7C17.5304 7 18.0391 6.78929 18.4142 6.41421C18.7893 6.03914 19 5.53043 19 5C19 4.46957 18.7893 3.96086 18.4142 3.58579C18.0391 3.21071 17.5304 3 17 3C16.4696 3 15.9609 3.21071 15.5858 3.58579C15.2107 3.96086 15 4.46957 15 5Z" stroke="#0095A9" stroke-width="2" stroke-linecap="round" stroke-linejoin="round"/>
</svg>
