<svg width="24" height="24" viewBox="0 0 24 24" fill="none" xmlns="http://www.w3.org/2000/svg">
<path d="M3 21H21M14.639 10.2578L19.469 8.96376C19.7245 8.88998 19.9921 8.86789 20.2562 8.89876C20.5203 8.92964 20.7756 9.01288 21.0071 9.1436C21.2387 9.27432 21.4419 9.4499 21.6047 9.66007C21.7676 9.87025 21.887 10.1108 21.9558 10.3676C22.0246 10.6245 22.0415 10.8925 22.0055 11.1559C21.9695 11.4194 21.8814 11.673 21.7462 11.902C21.611 12.131 21.4315 12.3307 21.2182 12.4895C21.0049 12.6483 20.7621 12.7629 20.504 12.8268L6.015 16.7098L1.565 11.6898L4.462 10.9138L6.912 12.3278L9.809 11.5518L6.066 5.30776L8.964 4.53076L14.639 10.2578Z" stroke="#0095A9" stroke-width="2" stroke-linecap="round" stroke-linejoin="round"/>
</svg>
