<?xml version="1.0" encoding="UTF-8"?>
<svg version="1.1" xmlns="http://www.w3.org/2000/svg" width="4096" height="1655">
<path d="M0 0 C1.7989025 0.3622918 3.59971135 0.71513509 5.40136719 1.06347656 C36.89527531 7.15657626 67.12930823 15.95588673 97.37841797 26.47900391 C98.03643402 26.70753052 98.69445007 26.93605713 99.37240601 27.17150879 C106.75596942 29.74417255 113.85268727 32.52561037 120.91357422 35.88916016 C124.07323945 37.33897273 127.25012415 38.65334274 130.47900391 39.9362793 C138.68692477 43.20210697 146.42646707 47.00249614 154.18310547 51.22119141 C158.25959382 53.4363041 162.40163437 55.49764974 166.56591797 57.54150391 C173.36957901 60.90690694 179.96172692 64.53972328 186.50976562 68.38427734 C188.53809561 69.57254905 190.57324547 70.74861753 192.60888672 71.92431641 C204.62697688 78.89301396 216.09198342 86.53373065 227.46826172 94.49853516 C230.32469295 96.49957291 230.32469295 96.49957291 233.25732422 98.11572266 C233.95728516 98.56560547 234.65724609 99.01548828 235.37841797 99.47900391 C235.37841797 100.13900391 235.37841797 100.79900391 235.37841797 101.47900391 C236.07966797 101.72650391 236.78091797 101.97400391 237.50341797 102.22900391 C240.77356345 103.65080629 243.51953997 105.35146679 246.37841797 107.47900391 C246.37841797 108.13900391 246.37841797 108.79900391 246.37841797 109.47900391 C247.07322266 109.70072266 247.76802734 109.92244141 248.48388672 110.15087891 C252.07098292 111.79678 254.76653899 114.13765643 257.69091797 116.72900391 C262.01991197 120.49497668 266.36726797 124.0795038 271.08544922 127.35791016 C271.51212891 127.72787109 271.93880859 128.09783203 272.37841797 128.47900391 C272.37841797 129.13900391 272.37841797 129.79900391 272.37841797 130.47900391 C272.93013672 130.71232422 273.48185547 130.94564453 274.05029297 131.18603516 C276.99097064 132.81919675 279.16919048 134.87239598 281.62841797 137.16650391 C282.52044922 137.99537109 283.41248047 138.82423828 284.33154297 139.67822266 C285.06328735 140.35908936 285.06328735 140.35908936 285.80981445 141.05371094 C287.44367899 142.53830256 289.12150696 143.96022343 290.80419922 145.38916016 C296.90850385 150.7121774 302.58102941 156.49561347 308.30493164 162.22021484 C310.30253749 164.21563804 312.3080115 166.20291447 314.31396484 168.18994141 C320.79517446 174.64371255 327.00028483 181.10738333 332.64624023 188.31591797 C334.2967009 190.47182389 334.2967009 190.47182389 336.11254883 192.14990234 C337.37841797 193.47900391 337.37841797 193.47900391 337.37841797 195.47900391 C338.36841797 195.80900391 339.35841797 196.13900391 340.37841797 196.47900391 C342.06982422 198.30712891 342.06982422 198.30712891 343.94091797 200.72900391 C344.63314453 201.62103516 345.32537109 202.51306641 346.03857422 203.43212891 C346.81072266 204.43759766 347.58287109 205.44306641 348.37841797 206.47900391 C349.29261438 207.64138194 350.20802024 208.80280959 351.12451172 209.96337891 C352.04293475 211.13489791 352.96090951 212.30676849 353.87841797 213.47900391 C354.32386963 214.04264648 354.76932129 214.60628906 355.22827148 215.18701172 C358.37841797 219.25036063 358.37841797 219.25036063 358.37841797 221.47900391 C359.03841797 221.47900391 359.69841797 221.47900391 360.37841797 221.47900391 C361.671875 223.04858398 361.671875 223.04858398 363.13623047 225.24853516 C363.67554199 226.0496875 364.21485352 226.85083984 364.77050781 227.67626953 C365.62829834 228.97081055 365.62829834 228.97081055 366.50341797 230.29150391 C367.68442 232.04888168 368.86670592 233.80539735 370.05029297 235.56103516 C370.90977539 236.83841553 370.90977539 236.83841553 371.78662109 238.14160156 C373.71375467 240.97141397 375.71407085 243.72909686 377.75341797 246.47900391 C388.37841797 260.94708901 388.37841797 260.94708901 388.37841797 265.47900391 C389.03841797 265.47900391 389.69841797 265.47900391 390.37841797 265.47900391 C391.88623047 267.56103516 391.88623047 267.56103516 393.50341797 270.29150391 C394.04224609 271.18482422 394.58107422 272.07814453 395.13623047 272.99853516 C396.37841797 275.47900391 396.37841797 275.47900391 396.37841797 278.47900391 C397.03841797 278.47900391 397.69841797 278.47900391 398.37841797 278.47900391 C404.69737393 289.66666364 410.77958554 300.91349305 416.37841797 312.47900391 C416.73258789 313.20667969 417.08675781 313.93435547 417.45166016 314.68408203 C435.80724619 352.49691327 451.12181425 392.41686473 460.37841797 433.47900391 C460.74650329 435.0689413 461.11497519 436.65878926 461.48388672 438.24853516 C462.49353958 442.6494645 463.44283222 447.06182818 464.37841797 451.47900391 C464.62156738 452.60508057 464.62156738 452.60508057 464.86962891 453.75390625 C469.10587887 473.46113929 471.94164239 493.37719467 474.06591797 513.41650391 C474.18523682 514.52695068 474.30455566 515.63739746 474.42749023 516.78149414 C476.21766878 534.54218818 476.58565233 552.3279226 476.56591797 570.16650391 C476.56531372 571.18680695 476.56470947 572.20710999 476.56408691 573.2583313 C476.48648187 621.89918595 471.11999201 670.43868293 458.37841797 717.47900391 C458.09933594 718.51412109 457.82025391 719.54923828 457.53271484 720.61572266 C448.67838328 753.08766552 438.13238229 786.6490123 422.37841797 816.47900391 C421.58280039 818.06035561 420.79067732 819.64347457 420.00341797 821.22900391 C419.46716797 822.30150391 418.93091797 823.37400391 418.37841797 824.47900391 C410.89496408 817.59157732 406.63821435 806.5401878 401.87841797 797.68994141 C398.96146123 792.29660994 395.93365086 786.99876282 392.75341797 781.75634766 C390.90473158 778.69446083 389.14030764 775.59167565 387.37841797 772.47900391 C385.05422579 768.38476465 382.69738065 764.31572517 380.25341797 760.29150391 C377.65489561 756.00043051 375.26104547 751.61751084 372.88232422 747.20166016 C371.42425814 744.56199247 369.88970906 741.98850521 368.31591797 739.41650391 C360.37841797 726.32695905 360.37841797 726.32695905 360.37841797 722.47900391 C359.71841797 722.47900391 359.05841797 722.47900391 358.37841797 722.47900391 C357.52376953 720.74263672 357.52376953 720.74263672 356.65185547 718.97119141 C354.55441156 714.77814831 352.31442877 710.68240536 350.00341797 706.60400391 C349.60985107 705.90637939 349.21628418 705.20875488 348.81079102 704.48999023 C346.20649209 699.89106777 343.5188112 695.35039442 340.77294922 690.83447266 C338.70776952 687.34622796 336.80664876 683.7728521 334.88232422 680.20556641 C333.41733228 677.54955505 331.88643978 674.94877907 330.31591797 672.35400391 C328.34875206 669.09961597 326.39532645 665.84035278 324.50341797 662.54150391 C324.09349609 661.83123047 323.68357422 661.12095703 323.26123047 660.38916016 C322.37841797 658.47900391 322.37841797 658.47900391 322.37841797 655.47900391 C321.71841797 655.47900391 321.05841797 655.47900391 320.37841797 655.47900391 C319.84216797 654.36525391 319.30591797 653.25150391 318.75341797 652.10400391 C316.6919612 647.97383171 314.35207633 644.06027029 311.95263672 640.11962891 C309.28792243 635.64978558 306.84841366 631.0583623 304.37841797 626.47900391 C301.17506899 620.5676692 297.79508421 614.76873647 294.37841797 608.97900391 C288.04407288 598.22485961 288.04407288 598.22485961 286.25341797 595.10400391 C285.87958984 594.45689453 285.50576172 593.80978516 285.12060547 593.14306641 C284.37841797 591.47900391 284.37841797 591.47900391 284.37841797 588.47900391 C283.71841797 588.47900391 283.05841797 588.47900391 282.37841797 588.47900391 C281.89373047 587.55861328 281.40904297 586.63822266 280.90966797 585.68994141 C273.17047761 571.00447315 273.17047761 571.00447315 264.64794922 556.76806641 C263.37841797 554.47900391 263.37841797 554.47900391 263.37841797 551.47900391 C262.71841797 551.47900391 262.05841797 551.47900391 261.37841797 551.47900391 C261.03061279 550.83874268 260.68280762 550.19848145 260.32446289 549.53881836 C258.73939886 546.62243785 257.15267481 543.70696371 255.56591797 540.79150391 C255.01871094 539.78410156 254.47150391 538.77669922 253.90771484 537.73876953 C253.11010742 536.27407227 253.11010742 536.27407227 252.29638672 534.77978516 C251.80936279 533.88428955 251.32233887 532.98879395 250.82055664 532.06616211 C249.83167567 530.29213609 248.78643085 528.54871388 247.69604492 526.83520508 C246.37841797 524.47900391 246.37841797 524.47900391 246.37841797 521.47900391 C245.71841797 521.47900391 245.05841797 521.47900391 244.37841797 521.47900391 C244.07774414 520.92253174 243.77707031 520.36605957 243.46728516 519.79272461 C236.49196599 506.90051055 229.36897721 494.1070417 222.05908203 481.40185547 C218.86599609 475.8487432 215.68377115 470.28941481 212.50341797 464.72900391 C212.16479736 464.13713287 211.82617676 463.54526184 211.47729492 462.93545532 C206.05972529 453.4625997 200.7085324 443.95405413 195.38891602 434.42578125 C191.24913161 427.01637704 187.05794355 419.63805976 182.83740234 412.27441406 C179.24362672 406.0019226 175.67984757 399.71305745 172.12841797 393.41650391 C167.60070174 385.39003566 163.04088844 377.38245288 158.46118164 369.38555908 C152.37863185 358.76438501 146.35509949 348.11228176 140.38867188 337.42529297 C136.24892333 330.01607721 132.05785316 322.63790207 127.83740234 315.27441406 C124.24362672 309.0019226 120.67984757 302.71305745 117.12841797 296.41650391 C112.60070174 288.39003566 108.04088844 280.38245288 103.46118164 272.38555908 C97.37863185 261.76438501 91.35509949 251.11228176 85.38867188 240.42529297 C81.24892333 233.01607721 77.05785316 225.63790207 72.83740234 218.27441406 C69.24362651 212.00192222 65.67990032 205.71302794 62.12841797 199.41650391 C56.63843475 189.68588454 51.10454299 179.9808235 45.54931641 170.28735352 C39.11190804 159.04387687 32.75392288 147.75874337 26.37841797 136.47900391 C-59.09158203 136.47900391 -144.56158203 136.47900391 -232.62158203 136.47900391 C-236.58158203 143.73900391 -240.54158203 150.99900391 -244.62158203 158.47900391 C-246.87090394 162.39220777 -249.12727459 166.2887314 -251.43408203 170.16650391 C-256.4619629 178.70037345 -261.33769349 187.30611723 -266.12158203 195.97900391 C-270.90554017 204.65201677 -275.78526003 213.25517565 -280.80908203 221.79150391 C-285.78377564 230.24765 -290.5669799 238.78525857 -295.23266602 247.4152832 C-299.9949866 256.2107162 -304.95320061 264.88709809 -309.94091797 273.55615234 C-313.13400391 279.10926461 -316.31622885 284.66859301 -319.49658203 290.22900391 C-320.00451294 291.11681046 -320.00451294 291.11681046 -320.52270508 292.02255249 C-325.94027471 301.49540811 -331.2914676 311.00395369 -336.61108398 320.53222656 C-340.75086839 327.94163077 -344.94205645 335.31994805 -349.16259766 342.68359375 C-352.75637328 348.95608522 -356.32015243 355.24495036 -359.87158203 361.54150391 C-364.39929826 369.56797215 -368.95911156 377.57555494 -373.53881836 385.57244873 C-379.62136815 396.1936228 -385.64490051 406.84572606 -391.61132812 417.53271484 C-395.75107667 424.94193061 -399.94214684 432.32010574 -404.16259766 439.68359375 C-407.75637328 445.95608522 -411.32015243 452.24495036 -414.87158203 458.54150391 C-419.39929826 466.56797215 -423.95911156 474.57555494 -428.53881836 482.57244873 C-434.62136815 493.1936228 -440.64490051 503.84572606 -446.61132812 514.53271484 C-450.75107667 521.94193061 -454.94214684 529.32010574 -459.16259766 536.68359375 C-462.75637328 542.95608522 -466.32015243 549.24495036 -469.87158203 555.54150391 C-474.39929826 563.56797215 -478.95911156 571.57555494 -483.53881836 579.57244873 C-489.62136815 590.1936228 -495.64490051 600.84572606 -501.61132812 611.53271484 C-505.75107667 618.94193061 -509.94214684 626.32010574 -514.16259766 633.68359375 C-517.75637328 639.95608522 -521.32015243 646.24495036 -524.87158203 652.54150391 C-529.39929826 660.56797215 -533.95911156 668.57555494 -538.53881836 676.57244873 C-544.62136815 687.1936228 -550.64490051 697.84572606 -556.61132812 708.53271484 C-560.75107667 715.94193061 -564.94214684 723.32010574 -569.16259766 730.68359375 C-572.75637328 736.95608522 -576.32015243 743.24495036 -579.87158203 749.54150391 C-585.06987847 758.75673717 -590.31494742 767.9447022 -595.5737915 777.12545776 C-601.09036173 786.75959813 -606.53935291 796.42937849 -611.92993164 806.13476562 C-613.48255658 808.92273894 -615.04682243 811.70347764 -616.62158203 814.47900391 C-617.16911133 815.44547852 -617.71664062 816.41195312 -618.28076172 817.40771484 C-618.8134668 818.32584961 -619.34617187 819.24398437 -619.89501953 820.18994141 C-620.37116699 821.0154248 -620.84731445 821.8409082 -621.33789062 822.69140625 C-621.76150879 823.28131348 -622.18512695 823.8712207 -622.62158203 824.47900391 C-623.28158203 824.47900391 -623.94158203 824.47900391 -624.62158203 824.47900391 C-629.71734117 813.90364922 -634.46813992 803.25606266 -638.85302734 792.3671875 C-639.92924052 789.72314916 -641.06002537 787.10299605 -642.18408203 784.47900391 C-644.98645992 777.74601806 -647.39857138 770.88619881 -649.76074219 763.98974609 C-650.36095649 762.23914942 -650.96510465 760.48989871 -651.57226562 758.74169922 C-656.36661987 744.91426581 -660.52395977 731.04626459 -664.03710938 716.83886719 C-664.51929828 714.89198417 -665.0157903 712.94864952 -665.51611328 711.00634766 C-686.9149604 627.81403829 -688.25299018 539.14227546 -669.62158203 446.47900391 C-669.45303711 445.68880859 -669.28449219 444.89861328 -669.11083984 444.08447266 C-663.33681818 417.33423843 -655.62586568 389.69669229 -644.89892578 364.52587891 C-643.61737889 361.46897807 -642.42221618 358.39055262 -641.24658203 355.29150391 C-636.29027297 342.34314649 -630.96074205 329.81577437 -624.62158203 317.47900391 C-623.97309108 316.16911836 -623.32733968 314.85787359 -622.68408203 313.54541016 C-618.87071338 305.77830345 -614.84433371 298.20628755 -610.49658203 290.72509766 C-608.77867349 287.75096849 -607.12507871 284.75274904 -605.49658203 281.72900391 C-589.42391144 252.15529002 -569.0543035 224.92555369 -547.68408203 199.01416016 C-545.70076543 196.5763335 -543.7800485 194.10064 -541.87158203 191.60400391 C-539.32196683 188.3017563 -536.61150286 185.39599984 -533.62158203 182.47900391 C-532.30286932 180.98446283 -530.99096542 179.48389993 -529.68408203 177.97900391 C-526.56269903 174.43091499 -523.2603086 171.49837276 -519.62158203 168.47900391 C-517.86071691 166.55501826 -516.17156528 164.57873597 -514.47705078 162.59619141 C-510.45647846 158.00850678 -506.1523924 153.66293806 -501.43408203 149.79150391 C-498.01269086 146.97836005 -494.95000174 143.90582508 -491.93408203 140.66650391 C-490.62158203 139.47900391 -490.62158203 139.47900391 -488.62158203 139.47900391 C-488.29158203 138.48900391 -487.96158203 137.49900391 -487.62158203 136.47900391 C-485.88931929 134.87087725 -484.08708114 133.33703074 -482.24658203 131.85400391 C-481.26947266 131.05736328 -480.29236328 130.26072266 -479.28564453 129.43994141 C-476.62158203 127.47900391 -476.62158203 127.47900391 -473.62158203 126.47900391 C-473.62158203 125.81900391 -473.62158203 125.15900391 -473.62158203 124.47900391 C-472.81720703 124.21087891 -472.01283203 123.94275391 -471.18408203 123.66650391 C-470.33845703 123.27462891 -469.49283203 122.88275391 -468.62158203 122.47900391 C-468.29158203 121.48900391 -467.96158203 120.49900391 -467.62158203 119.47900391 C-465.32080078 117.53369141 -465.32080078 117.53369141 -462.30908203 115.35400391 C-461.20731487 114.54959665 -460.10575804 113.74490124 -459.00439453 112.93994141 C-458.44010742 112.53098633 -457.87582031 112.12203125 -457.29443359 111.70068359 C-454.73102301 109.82863068 -452.21121216 107.8996228 -449.68408203 105.97900391 C-445.33557018 102.72192832 -440.94536458 99.53454925 -436.49658203 96.41650391 C-434.88396484 95.28535156 -434.88396484 95.28535156 -433.23876953 94.13134766 C-430.62158203 92.47900391 -430.62158203 92.47900391 -428.62158203 92.47900391 C-428.62158203 91.81900391 -428.62158203 91.15900391 -428.62158203 90.47900391 C-426.85641462 89.32014612 -425.03091246 88.25271516 -423.18408203 87.22900391 C-419.50961116 85.14822796 -415.9082201 83.06694182 -412.43408203 80.66650391 C-406.16562924 76.41651534 -399.58890139 72.67744104 -393.03857422 68.88378906 C-390.5729717 67.45075099 -388.11674918 66.00246803 -385.66064453 64.55322266 C-368.29256824 54.37902412 -350.29583546 45.83382693 -331.69189453 38.17431641 C-328.50089535 36.85815622 -325.36705156 35.45609136 -322.24658203 33.97900391 C-298.37050927 23.07354427 -272.47317917 15.2862786 -246.99658203 9.06640625 C-244.38617908 8.42078233 -241.7857692 7.74089805 -239.18408203 7.06103516 C-163.07045742 -12.43956732 -77.20390776 -15.60953326 0 0 Z " fill="#0195A9" transform="translate(996.62158203125,256.52099609375)"/>
<path d="M0 0 C5.53777742 5.11305113 8.7432078 12.37795538 12 19.0625 C14.2331381 23.62815669 16.74556849 27.75589953 19.6328125 31.9296875 C21.3052145 34.46218195 22.61976111 37.07585385 23.921875 39.8125 C25.74554356 43.51269708 27.80564858 47.08528633 29.828125 50.6796875 C31 53 31 53 31 55 C31.66 55 32.32 55 33 55 C33.56976562 56.15757812 34.13953125 57.31515625 34.7265625 58.5078125 C36.82400641 62.7008556 39.06398919 66.79659855 41.375 70.875 C41.76856689 71.57262451 42.16213379 72.27024902 42.56762695 72.98901367 C45.17192587 77.58793614 47.85960677 82.12860949 50.60546875 86.64453125 C52.67064844 90.13277594 54.57176921 93.7061518 56.49609375 97.2734375 C57.96108569 99.92944886 59.49197819 102.53022484 61.0625 105.125 C63.02966591 108.37938793 64.98309152 111.63865113 66.875 114.9375 C67.48988281 116.00291016 67.48988281 116.00291016 68.1171875 117.08984375 C69 119 69 119 69 122 C69.66 122 70.32 122 71 122 C71.804375 123.670625 71.804375 123.670625 72.625 125.375 C74.25298294 128.64247106 76.03133982 131.76209759 77.9375 134.875 C86 148.1278626 86 148.1278626 86 152 C86.66 152 87.32 152 88 152 C88.53625 153.11375 89.0725 154.2275 89.625 155.375 C91.68388193 159.50001344 94.01957939 163.40917708 96.41796875 167.34375 C98.58982819 170.99032881 100.60008318 174.71695954 102.60546875 178.45703125 C103.57054692 180.21687968 104.59919399 181.94278774 105.67578125 183.63671875 C107 186 107 186 107 189 C107.66 189 108.32 189 109 189 C109.53625 190.11375 110.0725 191.2275 110.625 192.375 C112.70338074 196.53910559 115.06047336 200.49141027 117.47265625 204.46875 C118.96642158 206.94435086 120.43741468 209.42885253 121.875 211.9375 C122.28492188 212.64777344 122.69484375 213.35804688 123.1171875 214.08984375 C124 216 124 216 124 219 C124.66 219 125.32 219 126 219 C126.53625 220.11375 127.0725 221.2275 127.625 222.375 C129.68388193 226.50001344 132.01957939 230.40917708 134.41796875 234.34375 C136.58982819 237.99032881 138.60008318 241.71695954 140.60546875 245.45703125 C141.57054692 247.21687968 142.59919399 248.94278774 143.67578125 250.63671875 C145 253 145 253 145 256 C145.66 256 146.32 256 147 256 C147.53625 257.11375 148.0725 258.2275 148.625 259.375 C150.70338074 263.53910559 153.06047336 267.49141027 155.47265625 271.46875 C156.96642158 273.94435086 158.43741468 276.42885253 159.875 278.9375 C160.28492188 279.64777344 160.69484375 280.35804688 161.1171875 281.08984375 C162 283 162 283 162 286 C162.66 286 163.32 286 164 286 C166.10865385 289.47307692 166.10865385 289.47307692 165.55859375 292.140625 C165.28208984 293.06101562 165.28208984 293.06101562 165 294 C163.88625 293.5875 162.7725 293.175 161.625 292.75 C156.87574698 291.16691566 152.06846067 290.02488834 147.1875 288.9375 C146.46578613 288.77540039 145.74407227 288.61330078 145.00048828 288.44628906 C142.67164875 287.93838466 140.33754912 287.46611009 138 287 C137.18499023 286.82484863 136.36998047 286.64969727 135.53027344 286.46923828 C125.08884354 284.44426775 114.4741783 284.37135301 103.875 284 C85.75815912 283.3583244 68.03074189 282.45743484 50.3125 278.375 C37.3884734 275.37440056 37.3884734 275.37440056 24.84375 278.74609375 C22.75322385 279.95210753 22.75322385 279.95210753 21.625 282.6875 C22.16361199 287.44523923 24.2345059 291.12504514 27 295 C27.66 295.33 28.32 295.66 29 296 C29 296.66 29 297.32 29 298 C29.69480469 298.26167969 30.38960937 298.52335937 31.10546875 298.79296875 C34.2891595 300.12058068 37.26478352 301.69731771 40.3125 303.3125 C46.80661699 306.6558677 53.39965865 308.91067339 60.3984375 310.94921875 C63.1235914 311.74430161 65.77072831 312.59978512 68.4375 313.5625 C72.66604007 314.98821466 76.97550809 316.02702606 81.3125 317.0625 C82.05024658 317.24167969 82.78799316 317.42085937 83.5480957 317.60546875 C87.92749951 318.6333028 92.1328233 319.20086565 96.625 319.5625 C100.36706257 320.11250095 101.63348826 320.59928911 104.21875 323.42578125 C106.47985289 326.92400397 108.33683307 330.47001646 109.9921875 334.2890625 C110.9535286 336.34946379 110.9535286 336.34946379 114 337 C115.71875 338.77734375 115.71875 338.77734375 117.5 340.9375 C119.62876021 343.50975192 121.18391145 345.12260763 124 347 C124 347.66 124 348.32 124 349 C124.70125 349.2475 125.4025 349.495 126.125 349.75 C129.39514548 351.17180238 132.141122 352.87246288 135 355 C135 355.66 135 356.32 135 357 C135.83337891 357.17595703 135.83337891 357.17595703 136.68359375 357.35546875 C139.31028524 358.08633569 141.60043902 359.14129868 144.0625 360.3125 C155.45813604 365.53050177 166.77252934 368.47110618 179 371 C179 371.33 179 371.66 179 372 C163.28108774 371.74154255 147.9647553 368.38922485 134 361 C132.60201172 360.2884375 132.60201172 360.2884375 131.17578125 359.5625 C121.78528212 354.64305707 114.69646617 349.22224327 108 341 C107.195625 340.05125 106.39125 339.1025 105.5625 338.125 C104 336 104 336 104 334 C103.34 334 102.68 334 102 334 C100.515 331.03 100.515 331.03 99 328 C82.75675376 331.67295593 66.62728375 335.48921925 50.65625 340.22753906 C47.77848326 341.06441902 44.89147878 341.86027041 42 342.6484375 C19.55498002 348.77298363 -3.26393963 355.2479687 -24 366 C-24.94875 366.33 -25.8975 366.66 -26.875 367 C-29.4782268 368.22504791 -30.02728147 369.34713128 -31 372 C-31.66 372 -32.32 372 -33 372 C-35.39216165 377.98653787 -36.65943183 382.28227742 -34.25 388.40625 C-32.4320378 390.72415181 -30.82431349 391.20088772 -28 392 C-15.95268904 392.95591265 -4.74420258 391.20075981 6.75390625 387.671875 C15.76516227 384.96701502 24.86656274 382.90362312 34.0625 380.9375 C37.09579894 380.2833608 40.12827385 379.62551655 43.16015625 378.96484375 C43.89635696 378.80456696 44.63255768 378.64429016 45.3910675 378.47915649 C56.14814676 376.11515718 66.80636458 373.34569089 77.44921875 370.515625 C80.03645889 369.99263006 82.36809712 369.90515665 85 370 C82.29610405 371.8025973 80.40715792 372.63411583 77.36328125 373.59375 C76.41001953 373.89667969 75.45675781 374.19960938 74.47460938 374.51171875 C73.43111328 374.83785156 72.38761719 375.16398437 71.3125 375.5 C70.21615234 375.84675781 69.11980469 376.19351562 67.99023438 376.55078125 C64.32871042 377.70662205 60.66472006 378.85433479 57 380 C55.69710277 380.40755179 54.39420564 380.81510387 53.09130859 381.22265625 C47.69012781 382.9115061 42.28835885 384.59846392 36.88574219 386.28271484 C26.59578836 389.49198446 16.32338781 392.75364251 6.0625 396.0546875 C1.79572644 397.42714771 -2.47561998 398.78423093 -6.75 400.1328125 C-7.86898682 400.48714355 -8.98797363 400.84147461 -10.14086914 401.20654297 C-12.26152289 401.87777707 -14.38303943 402.5462946 -16.50561523 403.21142578 C-25.84298054 406.17465536 -34.13160492 409.09870369 -42 415 C-42.66 415 -43.32 415 -44 415 C-44.4640625 415.928125 -44.4640625 415.928125 -44.9375 416.875 C-45.625 418.25 -46.3125 419.625 -47 421 C-47.51571681 425.37936569 -47.83341277 428.85046515 -45.1875 432.5 C-37.1513217 438.01052227 -24.87109375 434.69414361 -15.890625 433.03515625 C-10.08320741 431.8683427 -4.44171062 430.22043229 1.23413086 428.54003906 C24.5981691 421.65274679 48.38502776 416.48521193 72.2265625 411.56640625 C73.27453255 411.34977577 73.27453255 411.34977577 74.34367371 411.12876892 C80.79801581 409.80916516 86.77425268 408.8752288 93.375 408.9375 C94.62023437 408.94652344 95.86546875 408.95554687 97.1484375 408.96484375 C98.08945312 408.97644531 99.03046875 408.98804688 100 409 C97.35206989 410.40190794 94.84294976 411.42608252 91.95117188 412.20166016 C91.15993423 412.4162236 90.36869659 412.63078705 89.55348206 412.85185242 C88.27403969 413.19202141 88.27403969 413.19202141 86.96875 413.5390625 C86.07320908 413.78102859 85.17766815 414.02299469 84.25498962 414.27229309 C82.33452471 414.79088144 80.41356281 415.30763213 78.49215698 415.82272339 C73.47284494 417.16853401 68.45715084 418.52768319 63.44140625 419.88671875 C61.95363426 420.28942741 61.95363426 420.28942741 60.43580627 420.70027161 C52.41545042 422.87585429 44.42081693 425.12980467 36.4375 427.4375 C28.89725837 429.61704959 21.35008483 431.72658814 13.75 433.6875 C-3.97975991 437.5784307 -3.97975991 437.5784307 -19 447 C-19.845625 447.804375 -20.69125 448.60875 -21.5625 449.4375 C-23.26515708 452.02953436 -23.26515708 452.02953436 -23.1875 455.5625 C-21.87495458 459.36197358 -20.62257181 460.4352336 -17.08203125 462.2734375 C-5.49807458 466.31586891 7.22978562 463.75333897 18.89648438 461.41894531 C20.89150645 461.02160805 22.89098927 460.64686345 24.890625 460.2734375 C34.70402157 458.40519673 44.40512133 456.07927354 53.93554688 453.07446289 C63.66727697 450.09408541 73.3034374 448.60221437 83.375 447.3125 C84.97799096 447.0992551 86.58085665 446.88506641 88.18359375 446.66992188 C95.11796016 445.74410234 102.05768729 444.86402507 109 444 C109 444.66 109 445.32 109 446 C86.62272646 453.75613463 63.66273578 459.25970752 40.55078125 464.359375 C37.64203042 465.08990354 34.83855789 466.03450412 32 467 C30.39125 467.433125 30.39125 467.433125 28.75 467.875 C25.94524087 468.74013282 25.94524087 468.74013282 24.6875 470.8125 C24.3471875 471.8953125 24.3471875 471.8953125 24 473 C23.690625 473.804375 23.38125 474.60875 23.0625 475.4375 C22.73133689 478.21544889 22.73133689 478.21544889 25 480.6875 C39.74999582 492.05728845 72.44041087 483.03901978 89.49609375 480.83984375 C90.5516748 480.70304199 91.60725586 480.56624023 92.69482422 480.42529297 C96.11973796 479.98459274 99.54600588 479.55588113 102.97265625 479.12890625 C117.21119844 477.34235346 131.42990084 475.42390984 145.63430786 473.38369751 C147.38632126 473.13269118 149.13865141 472.88388341 150.8913269 472.63754272 C167.55543863 470.28863621 183.72396775 467.27447948 199.5625 461.4375 C201.32762939 460.79820557 201.32762939 460.79820557 203.12841797 460.14599609 C213.45715525 456.33819853 223.51944555 451.99675424 233.5390625 447.4453125 C235.35889069 446.62912761 237.17919343 445.8139999 239 445 C239.92006836 444.5781543 240.84013672 444.15630859 241.78808594 443.72167969 C242.67012695 443.33657227 243.55216797 442.95146484 244.4609375 442.5546875 C245.62955322 442.03237549 245.62955322 442.03237549 246.82177734 441.49951172 C249 441 249 441 251.13964844 441.66992188 C253.27069162 443.19353385 254.10060324 444.41076057 255.3046875 446.7265625 C255.71581787 447.4985498 256.12694824 448.27053711 256.55053711 449.06591797 C257.20614624 450.33266357 257.20614624 450.33266357 257.875 451.625 C258.84986509 453.45472627 259.82786969 455.28278241 260.80859375 457.109375 C261.32534668 458.07294922 261.84209961 459.03652344 262.37451172 460.02929688 C265.11778722 465.04284093 268.03228844 469.95412308 270.9375 474.875 C275.43042811 482.5128558 279.79562484 490.19961109 284 498 C288.67702642 506.67467778 293.57969416 515.19459096 298.578125 523.6875 C303.00230554 531.22893685 307.27709288 538.84427453 311.5 546.5 C316.20345651 555.02569628 320.99584284 563.4851362 325.9375 571.875 C331.15130061 580.73283091 336.18111927 589.67747721 341.125 598.6875 C348.55593579 612.227647 356.06921126 625.71749702 363.9609375 638.99609375 C364.43096191 639.78790039 364.90098633 640.57970703 365.38525391 641.39550781 C366.27108792 642.88320187 367.1611475 644.368391 368.05615234 645.85058594 C371 650.78180526 371 650.78180526 371 653 C369.33101325 654.56668459 367.58803244 656.055181 365.8125 657.5 C364.84957031 658.2940625 363.88664062 659.088125 362.89453125 659.90625 C360 662 360 662 357.19921875 663.09375 C356.47347656 663.3928125 355.74773438 663.691875 355 664 C354.67 664.99 354.34 665.98 354 667 C351.9375 667.6875 351.9375 667.6875 350 668 C350 668.66 350 669.32 350 670 C348.1015625 671.5078125 348.1015625 671.5078125 345.625 673.125 C344.81289062 673.66382813 344.00078125 674.20265625 343.1640625 674.7578125 C341 676 341 676 339 676 C339 676.66 339 677.32 339 678 C337.33227539 679.30566406 337.33227539 679.30566406 335.03515625 680.765625 C333.79789795 681.56323242 333.79789795 681.56323242 332.53564453 682.37695312 C331.69888184 682.91255859 330.86211914 683.44816406 330 684 C328.57930011 684.94904924 327.161211 685.90202146 325.74609375 686.859375 C300.83260656 703.59432227 300.83260656 703.59432227 288.140625 710.3203125 C285.591514 711.68364301 283.0670869 713.07679789 280.546875 714.4921875 C269.94377323 720.43021736 259.22765463 725.91220382 248.18701172 730.98876953 C246.11856908 731.94517603 244.05982188 732.91934785 242.00390625 733.90234375 C234.14799807 737.64757883 226.19666172 741.0049247 218.08764648 744.16064453 C216.54237686 744.78193291 215.00673635 745.42729078 213.47680664 746.08544922 C204.73990362 749.83441828 195.832217 752.89366448 186.8125 755.875 C186.02176086 756.13734436 185.23102173 756.39968872 184.4163208 756.66998291 C170.72193594 761.20445387 156.98246044 765.43429882 143 769 C142.01080566 769.25442871 141.02161133 769.50885742 140.00244141 769.77099609 C120.54793267 774.70246608 100.82417319 777.97742281 81 781 C79.88383301 781.17160645 78.76766602 781.34321289 77.61767578 781.52001953 C3.30959585 792.65722084 -77.2911292 787.3972636 -149.45361328 766.71826172 C-152.22252997 765.93723076 -154.9988295 765.18755224 -157.77734375 764.44140625 C-168.91488841 761.4287482 -179.9061321 758.14591923 -190.8125 754.375 C-191.85470703 754.0150293 -192.89691406 753.65505859 -193.97070312 753.28417969 C-201.09397341 750.77666078 -208.05713797 747.96769858 -215 745 C-216.3135144 744.4423999 -216.3135144 744.4423999 -217.65356445 743.87353516 C-222.92905408 741.62957031 -228.19314095 739.35908027 -233.45800781 737.09033203 C-235.71544913 736.12205188 -237.97742288 735.16582765 -240.2421875 734.21484375 C-250.82131509 729.7390084 -260.918218 724.49582618 -271 719 C-272.61068359 718.12384033 -272.61068359 718.12384033 -274.25390625 717.22998047 C-287.10219462 710.22100016 -299.83380434 703.15463925 -312 695 C-314.07964062 693.66091433 -316.1627877 692.32725295 -318.25 691 C-319.12140625 690.443125 -319.9928125 689.88625 -320.890625 689.3125 C-322.94607596 687.98828789 -322.94607596 687.98828789 -325 687 C-325 686.34 -325 685.68 -325 685 C-325.7321875 684.731875 -326.464375 684.46375 -327.21875 684.1875 C-334.89204766 680.91126055 -341.46118682 674.94644767 -348.01245117 669.8515625 C-350.81412877 667.6729873 -353.63053084 665.52378351 -356.49609375 663.4296875 C-357.05312988 663.02089355 -357.61016602 662.61209961 -358.18408203 662.19091797 C-359.73010348 661.06025941 -361.28093757 659.93619012 -362.83203125 658.8125 C-363.54746094 658.214375 -364.26289062 657.61625 -365 657 C-365 656.34 -365 655.68 -365 655 C-366.32 654.34 -367.64 653.68 -369 653 C-368.40574517 648.83974192 -367.00445795 645.8839914 -364.89453125 642.265625 C-364.24790527 641.14704102 -363.6012793 640.02845703 -362.93505859 638.87597656 C-362.22755018 637.6673112 -361.52003036 636.45865252 -360.8125 635.25 C-359.71275091 633.3533268 -358.61563243 631.4551489 -357.51873779 629.55682373 C-356.77149296 628.26378091 -356.02348047 626.97118143 -355.27471924 625.67901611 C-351.74033086 619.57360262 -348.3018352 613.41634097 -344.875 607.25 C-339.7452169 598.04028715 -334.46916642 588.92589504 -329.12646484 579.83837891 C-324.61776919 572.13703242 -320.2987021 564.34426631 -316.08154297 556.47973633 C-312.8905098 550.54528356 -309.51319426 544.74956006 -306 539 C-304.88496094 539.37511719 -303.76992188 539.75023437 -302.62109375 540.13671875 C-297.97549646 541.68525118 -293.31897817 543.19889363 -288.66015625 544.70703125 C-287.88997162 544.95637421 -287.11978699 545.20571716 -286.32626343 545.46261597 C-283.10824346 546.50406991 -279.89006719 547.54503853 -276.67163086 548.58520508 C-274.29257655 549.35427379 -271.91377973 550.12413108 -269.53515625 550.89453125 C-268.74862167 551.1492218 -267.9620871 551.40391235 -267.15171814 551.6663208 C-261.58190818 553.47460299 -256.02774915 555.32686524 -250.4765625 557.19140625 C-244.12765027 559.31912291 -237.76514976 561.33124866 -231.3125 563.125 C-229.99536011 563.4960083 -229.99536011 563.4960083 -228.65161133 563.87451172 C-215.82596392 567.47276308 -202.94970169 570.87659276 -190 574 C-189.04996094 574.22945312 -188.09992188 574.45890625 -187.12109375 574.6953125 C-175.89837591 577.1892498 -165.55238901 576.61862167 -155.49609375 570.46875 C-151.65740741 567.75563345 -151.65740741 567.75563345 -149 564 C-149.63276855 563.90501221 -150.26553711 563.81002441 -150.91748047 563.7121582 C-164.57480947 561.63107669 -177.79155589 559.06926814 -191 555 C-191 554.67 -191 554.34 -191 554 C-185.7147395 554.50335814 -180.44824757 555.06639387 -175.18115234 555.73535156 C-165.13764727 556.98992168 -155.11482561 557.66896934 -145 558 C-144.28924316 558.02336426 -143.57848633 558.04672852 -142.84619141 558.07080078 C-130.23312932 558.4237174 -117.10944501 558.62293837 -106 552 C-105.01 551.67 -104.02 551.34 -103 551 C-101.78130071 548.49552484 -101.78130071 548.49552484 -101 546 C-102.96066406 545.76216797 -102.96066406 545.76216797 -104.9609375 545.51953125 C-116.28270158 544.06991024 -126.99776411 541.90871267 -137.91845703 538.61425781 C-141.19763653 537.64658064 -144.50350149 536.79777188 -147.8125 535.9375 C-167.2310022 530.7689978 -167.2310022 530.7689978 -170 528 C-165.55357287 528.73580426 -161.11217198 529.49763652 -156.671875 530.26953125 C-138.8090181 533.3661071 -120.94391004 536.40428988 -103 539 C-101.81100098 539.17273437 -100.62200195 539.34546875 -99.39697266 539.5234375 C-85.92269902 541.45910414 -72.43941656 543.2058577 -58.875 544.375 C-57.85148437 544.47184082 -56.82796875 544.56868164 -55.7734375 544.66845703 C-48.57962595 545.22574079 -42.05479247 544.46838304 -35 543 C-33.20682577 538.56980483 -32.66137995 535.6336848 -34 531 C-39.23870304 524.88940438 -47.2273903 523.20045089 -54.78125 521.66796875 C-55.70426407 521.47062637 -56.62727814 521.273284 -57.57826233 521.06996155 C-59.53973888 520.65065 -61.50213453 520.23561804 -63.46536255 519.82458496 C-79.67169552 516.42226387 -95.67440125 512.79545971 -111.47070312 507.79248047 C-114.13376267 506.95808942 -116.80639156 506.16401215 -119.484375 505.37890625 C-128.09400227 502.85237906 -136.63317735 500.26229323 -145 497 C-145 496.34 -145 495.68 -145 495 C-138.5080929 495.6367189 -132.20177304 496.63457225 -125.8125 497.9375 C-124.76843994 498.14858398 -123.72437988 498.35966797 -122.64868164 498.57714844 C-92.2350523 504.79691277 -61.94357872 511.63378267 -31.66957092 518.49560547 C-27.83052997 519.36462394 -23.98988376 520.22564415 -20.14648438 521.07519531 C-19.34482849 521.25245148 -18.54317261 521.42970764 -17.71722412 521.61233521 C-16.20300414 521.94658777 -14.6885762 522.27990041 -13.17388916 522.61203003 C-9.67661388 523.3837558 -6.20106557 524.19894112 -2.73413086 525.09790039 C1.34764586 526.08398506 5.01446144 526.33246669 9.1875 526.3125 C10.21520508 526.33666992 10.21520508 526.33666992 11.26367188 526.36132812 C15.70331705 526.36560112 18.43718351 525.65030605 22 523 C23.65766798 521.34233202 23.21049503 519.39653595 23.25 517.125 C23.27578125 516.24070312 23.3015625 515.35640625 23.328125 514.4453125 C22.93959179 511.54981502 22.13671982 510.87806426 20 509 C20 508.34 20 507.68 20 507 C19.47664063 506.73960937 18.95328125 506.47921875 18.4140625 506.2109375 C16.57147723 505.28666334 14.73382017 504.35255792 12.8984375 503.4140625 C11.73570312 502.82367187 10.57296875 502.23328125 9.375 501.625 C8.22773437 501.03976562 7.08046875 500.45453125 5.8984375 499.8515625 C-1.77472271 496.10375127 -9.79236026 493.31590264 -17.92578125 490.7578125 C-19.79370528 490.16042348 -21.6615411 489.56275859 -23.52929688 488.96484375 C-26.41747617 488.04459894 -29.30640694 487.12692358 -32.19702148 486.21435547 C-43.17812995 482.74092104 -53.65544643 479.09872807 -64 474 C-65.32637019 473.42173356 -66.65768164 472.85450839 -67.99609375 472.3046875 C-78.8601439 467.79135906 -89.05727545 462.21883176 -99.32104492 456.48779297 C-102.08215366 454.95437488 -104.85606268 453.44629067 -107.6328125 451.94140625 C-112.3311967 449.38322609 -116.96215886 446.72988475 -121.5625 444 C-122.29500977 443.56703613 -123.02751953 443.13407227 -123.78222656 442.68798828 C-125.85619367 441.46095993 -127.92847447 440.23114469 -130 439 C-130.94230469 438.44054688 -131.88460937 437.88109375 -132.85546875 437.3046875 C-137.49202552 434.53636812 -142.09303342 431.71247179 -146.6875 428.875 C-151.08148856 426.16381557 -155.49181504 423.51619626 -160 421 C-160 420.34 -160 419.68 -160 419 C-148.40752263 417.25915016 -136.80019875 415.70339182 -125.16043091 414.31335449 C-120.91169909 413.80532372 -116.6638232 413.29016749 -112.4158783 412.77560425 C-108.86503947 412.34562707 -105.31396155 411.91795686 -101.76220703 411.49560547 C-97.7144343 411.01281651 -93.66979262 410.5071468 -89.625 410 C-88.41465088 409.85828369 -87.20430176 409.71656738 -85.95727539 409.57055664 C-72.06729663 407.8358588 -72.06729663 407.8358588 -61 400 C-59.8774644 395.94160207 -60.10148615 393.05360066 -61 389 C-69.69361336 386.13578004 -78.30171816 383.96494663 -87.3125 382.375 C-88.49094482 382.16262695 -89.66938965 381.95025391 -90.88354492 381.73144531 C-99.56047465 380.19359557 -108.22192187 378.80516768 -117 378 C-117.88333008 377.91314941 -118.76666016 377.82629883 -119.67675781 377.73681641 C-130.69403747 376.78763022 -141.70891833 376.84863597 -152.75927734 376.86962891 C-156.12472006 376.87499955 -159.49003002 376.86965055 -162.85546875 376.86328125 C-165.03125029 376.86394197 -167.20703175 376.865223 -169.3828125 376.8671875 C-170.37064728 376.86516327 -171.35848206 376.86313904 -172.37625122 376.86105347 C-178.37097843 376.88084138 -184.27382496 377.20471249 -190.24172974 377.77638245 C-194.74431911 378.14141485 -199.23586866 378.10682304 -203.75 378.0625 C-204.64976562 378.05798828 -205.54953125 378.05347656 -206.4765625 378.04882812 C-208.65107182 378.03726159 -210.82554591 378.01933803 -213 378 C-212.4073297 374.08230411 -211.21629761 371.21696736 -209.26171875 367.78125 C-208.412146 366.27630981 -208.412146 366.27630981 -207.54541016 364.7409668 C-206.9322998 363.67144775 -206.31918945 362.60192871 -205.6875 361.5 C-204.73689697 359.82321167 -204.73689697 359.82321167 -203.76708984 358.11254883 C-201.85157609 354.73774443 -199.92675351 351.36839702 -198 348 C-196.98793208 346.22285506 -195.97618429 344.44552774 -194.96484375 342.66796875 C-191.98614123 337.43981291 -188.99336561 332.21976995 -186 327 C-183.3732208 322.41768343 -180.7480647 317.8344435 -178.125 313.25 C-177.78553345 312.65686005 -177.44606689 312.06372009 -177.09631348 311.4526062 C-172.30598052 303.07918489 -167.57076362 294.67693471 -162.875 286.25 C-158.38529426 278.19285313 -153.80168985 270.19997687 -149.125 262.25 C-143.89264421 253.34953249 -138.84142641 244.36283507 -133.875 235.3125 C-127.89488416 224.41582931 -121.8166648 213.5831959 -115.61621094 202.81005859 C-112.44411518 197.29482866 -109.28384467 191.77282646 -106.125 186.25 C-105.78601685 185.65749451 -105.44703369 185.06498901 -105.09777832 184.45452881 C-99.68057482 174.98231432 -94.3297545 165.47440554 -89.01049805 155.94677734 C-84.87071365 148.53737313 -80.67952558 141.15905586 -76.45898438 133.79541016 C-72.86520875 127.52291869 -69.3014296 121.23405354 -65.75 114.9375 C-61.22228377 106.91103176 -56.66247048 98.90344897 -52.08276367 90.90655518 C-46.00021388 80.28538111 -39.97668152 69.63327785 -34.01025391 58.94628906 C-29.87946366 51.55310663 -25.69960209 44.18963928 -21.48535156 36.84375 C-18.80600314 32.17059308 -16.14418628 27.4883308 -13.50390625 22.79296875 C-12.91939697 21.75414551 -12.3348877 20.71532227 -11.73266602 19.64501953 C-10.60746083 17.64321022 -9.48414102 15.64033956 -8.36303711 13.63623047 C-5.73489379 8.96259629 -3.05913213 4.40485612 0 0 Z " fill="#0195A9" transform="translate(893,621)"/>
<path d="M0 0 C0.67804687 0.31582031 1.35609375 0.63164063 2.0546875 0.95703125 C13.26521685 6.24714048 22.16025449 13.47823094 31 22 C31.65871094 22.59554687 32.31742188 23.19109375 32.99609375 23.8046875 C39.91933807 30.23227229 45.44034043 38.7752976 50 47 C50 47.66 50 48.32 50 49 C52.90607082 46.11645686 55.77264578 43.20185142 58.609375 40.25 C74.53017952 23.82466294 91.82116705 10.02544112 113 1 C113.73476562 0.65324219 114.46953125 0.30648437 115.2265625 -0.05078125 C121.60381838 -3.05388902 128.2157387 -5.11588097 135 -7 C135.86423584 -7.24065186 136.72847168 -7.48130371 137.61889648 -7.72924805 C145.18450379 -9.73971097 152.658986 -10.87455422 160.4375 -11.6875 C162.12456055 -11.88182617 162.12456055 -11.88182617 163.84570312 -12.08007812 C176.15083926 -13.41590278 188.02737939 -13.15669997 200.3125 -11.75 C201.49094482 -11.61577637 202.66938965 -11.48155273 203.88354492 -11.34326172 C212.86524933 -10.25857144 221.35683137 -8.68704569 230 -6 C231.15886719 -5.65324219 232.31773437 -5.30648437 233.51171875 -4.94921875 C243.02203557 -1.85011215 251.50763361 2.79069247 260 8 C260.89138672 8.54309814 260.89138672 8.54309814 261.80078125 9.09716797 C263.23881909 10.00688687 264.62557597 10.9967553 266 12 C266 12.66 266 13.32 266 14 C268.475 14.99 268.475 14.99 271 16 C271 16.66 271 17.32 271 18 C271.57621094 18.25523437 272.15242188 18.51046875 272.74609375 18.7734375 C285.7606883 25.85590316 295.2813371 43.91918749 301 57 C301.51175781 58.17046875 302.02351563 59.3409375 302.55078125 60.546875 C317.92933197 97.07034456 315.56896421 137.23748154 315.4141549 176.06055054 C315.38502444 183.56514631 315.37950455 191.06971223 315.37496826 198.57435649 C315.36628577 211.94976854 315.33986528 225.32508116 315.30175781 238.70043945 C315.26485264 251.66755691 315.23663242 264.63464703 315.21972656 277.60180664 C315.21867567 278.40559956 315.21762477 279.20939248 315.21654204 280.03754277 C315.21132062 284.07127905 315.20626609 288.10501551 315.20129442 292.1387521 C315.16005264 325.42592296 315.08643666 358.7129082 315 392 C277.38 392 239.76 392 201 392 C200.97421875 374.96761719 200.9484375 357.93523437 200.921875 340.38671875 C200.89670175 329.58136879 200.87052727 318.77603652 200.83984375 307.97070312 C200.82375423 302.29109782 200.80791112 296.6114919 200.79248047 290.93188477 C200.79053653 290.22015053 200.78859259 289.5084163 200.78658974 288.77511436 C200.7556654 277.32155106 200.73862154 265.86800775 200.72680578 254.41441061 C200.71434464 242.63840309 200.68673231 230.86249951 200.64538693 219.08655769 C200.62262152 212.48124783 200.60708525 205.87605208 200.60811615 199.27069664 C200.60886677 193.03999122 200.59075513 186.80961189 200.55883217 180.57899094 C200.55038769 178.30521828 200.54854565 176.0314088 200.55419731 173.75762749 C200.60482673 150.23589016 198.03425809 125.79353703 181 108 C180.39671875 107.35675781 179.7934375 106.71351563 179.171875 106.05078125 C173.6464672 100.69949344 167.10739811 97.7625929 160 95 C159.12214844 94.65710938 158.24429688 94.31421875 157.33984375 93.9609375 C140.76360197 88.73661387 120.48810121 90.70955024 104.98046875 98.08203125 C102.38966288 99.28289787 99.72659291 100.16104834 97 101 C97 101.66 97 102.32 97 103 C96.40445313 103.25523437 95.80890625 103.51046875 95.1953125 103.7734375 C92.78516269 105.12003366 91.57123498 106.46696283 89.875 108.625 C88.3671875 110.5390625 88.3671875 110.5390625 87 112 C86.34 112 85.68 112 85 112 C84.34 113.65 83.68 115.3 83 117 C82.34 117 81.68 117 81 117 C80.88398438 117.54398438 80.76796875 118.08796875 80.6484375 118.6484375 C79.879332 121.43760324 78.7799178 123.97218881 77.625 126.625 C69.93032702 145.05230041 69.69971059 163.52933066 69.68115234 183.22680664 C69.67183408 185.51500292 69.66166265 187.80319585 69.65071106 190.09138489 C69.62361083 196.25133171 69.60832145 202.41125592 69.59528303 208.57124639 C69.57956429 215.02810944 69.55280232 221.48492691 69.5272522 227.9417572 C69.48590377 238.76234714 69.45126625 249.58293613 69.421875 260.40356445 C69.39160735 271.53997603 69.3571978 282.67636244 69.31738281 293.81274414 C69.31366055 294.85600126 69.31366055 294.85600126 69.30986309 295.92033428 C69.28823594 301.97192521 69.26629884 308.02351501 69.24433136 314.07510471 C69.15044186 340.05004128 69.07687906 366.02499461 69 392 C31.71 392 -5.58 392 -44 392 C-44.02578125 375.5309375 -44.0515625 359.061875 -44.078125 342.09375 C-44.10330565 331.63019661 -44.12948661 321.16666137 -44.16015625 310.703125 C-44.17622179 305.20117263 -44.19208746 299.69921981 -44.20751953 294.19726562 C-44.20946347 293.50784268 -44.21140741 292.81841973 -44.21341026 292.10810518 C-44.24429115 281.02967902 -44.26136619 269.95127348 -44.27319422 258.87281245 C-44.28567815 247.47306701 -44.31363151 236.07345274 -44.35461307 224.67376947 C-44.37710927 218.28346856 -44.39291784 211.89331949 -44.39188385 205.50297546 C-44.39113018 199.46841646 -44.40936061 193.43419162 -44.44116783 187.39971924 C-44.44957487 185.20383737 -44.45148073 183.0079176 -44.44580269 180.81202698 C-44.3918979 156.72699256 -45.71856496 130.0975083 -62 111 C-62.74121094 110.28070312 -63.48242188 109.56140625 -64.24609375 108.8203125 C-66 107 -66 107 -66 105 C-66.56589844 104.72929688 -67.13179687 104.45859375 -67.71484375 104.1796875 C-70.09440593 102.95126395 -72.30320036 101.56172102 -74.5625 100.125 C-85.81325149 93.3280172 -96.45257464 91.82003055 -109.375 91.8125 C-110.47328125 91.80025391 -111.5715625 91.78800781 -112.703125 91.77539062 C-118.85709484 91.76432233 -124.11710488 92.18389125 -130 94 C-130.92425781 94.27199219 -131.84851562 94.54398438 -132.80078125 94.82421875 C-147.65000719 99.92791849 -159.03440738 108.95828616 -166.51953125 122.8125 C-174.68795926 140.1858333 -175.29932886 157.33018441 -175.30297852 176.1940918 C-175.31064858 178.53904002 -175.31919662 180.88398551 -175.32855225 183.22892761 C-175.34676131 188.2575631 -175.35884384 193.28616193 -175.36609077 198.31482506 C-175.37663237 205.58630477 -175.39839235 212.85771133 -175.42347669 220.12915394 C-175.46396395 231.9310581 -175.49647489 243.7329692 -175.52319336 255.53491211 C-175.52479066 256.2396301 -175.52638796 256.94434808 -175.52803367 257.67042116 C-175.52963257 258.37606778 -175.53123147 259.0817144 -175.53287882 259.80874425 C-175.55562193 269.83889192 -175.58025574 279.86903256 -175.60717773 289.89916992 C-175.60907388 290.60635678 -175.61097003 291.31354365 -175.61292363 292.04216041 C-175.64465514 303.81615509 -175.68039189 315.59013562 -175.71821922 327.3641122 C-175.74318925 335.27011215 -175.7625978 343.17610109 -175.77760136 351.08212602 C-175.78776737 355.98238392 -175.80191166 360.88262462 -175.81707764 365.78286934 C-175.82325924 368.06422396 -175.82770383 370.34558401 -175.83033562 372.6269455 C-175.83411726 375.72636077 -175.84390378 378.82569918 -175.85523987 381.9250946 C-175.85485374 382.84004202 -175.8544676 383.75498944 -175.85406977 384.69766253 C-175.88593416 390.88593416 -175.88593416 390.88593416 -177 392 C-214.29 392 -251.58 392 -290 392 C-290 260.99 -290 129.98 -290 -5 C-252.71 -5 -215.42 -5 -177 -5 C-175.36040763 -3.36040763 -175.83357713 -1.4665562 -175.79467773 0.79516602 C-175.7647599 2.32664024 -175.7647599 2.32664024 -175.73423767 3.88905334 C-175.71752518 4.9994548 -175.70081268 6.10985626 -175.68359375 7.25390625 C-175.66281265 8.38448959 -175.64203156 9.51507294 -175.62062073 10.67991638 C-175.55500203 14.30737985 -175.49618323 17.93491833 -175.4375 21.5625 C-175.39432649 24.01498186 -175.3507126 26.467456 -175.30664062 28.91992188 C-175.19930816 34.94653427 -175.0975651 40.97322201 -175 47 C-174.34 46.01 -173.68 45.02 -173 44 C-172.34 44 -171.68 44 -171 44 C-170.7525 43.443125 -170.505 42.88625 -170.25 42.3125 C-168.77075182 39.57589087 -167.06532561 37.32349131 -165 35 C-164.34 35 -163.68 35 -163 35 C-162.7628125 34.43796875 -162.525625 33.8759375 -162.28125 33.296875 C-160.71052303 30.48105958 -158.78528536 28.52044584 -156.5 26.25 C-155.7059375 25.45078125 -154.911875 24.6515625 -154.09375 23.828125 C-152 22 -152 22 -150 22 C-149.67 21.01 -149.34 20.02 -149 19 C-146.72283935 17.12832086 -144.45824993 15.39387954 -142.0625 13.6875 C-141.38026367 13.19620605 -140.69802734 12.70491211 -139.99511719 12.19873047 C-121.51904798 -0.98040054 -101.08455947 -9.15193289 -78.5 -11.6875 C-77.44941406 -11.81705078 -76.39882812 -11.94660156 -75.31640625 -12.08007812 C-50.12253801 -15.02299599 -22.74328657 -11.60293095 0 0 Z " fill="#0295A9" transform="translate(3293,690)"/>
<path d="M0 0 C37.29 0 74.58 0 113 0 C113 178.2 113 356.4 113 540 C75.71 540 38.42 540 0 540 C-0.33 522.18 -0.66 504.36 -1 486 C-3.97 489.63 -6.94 493.26 -10 497 C-11.65 498.65 -13.3 500.3 -15 502 C-15.71542969 502.73863281 -16.43085938 503.47726562 -17.16796875 504.23828125 C-17.83441406 504.92277344 -18.50085937 505.60726563 -19.1875 506.3125 C-19.86167969 507.00988281 -20.53585937 507.70726562 -21.23046875 508.42578125 C-23 510 -23 510 -25 510 C-25.33 510.99 -25.66 511.98 -26 513 C-28.5625 514.1875 -28.5625 514.1875 -31 515 C-31 515.66 -31 516.32 -31 517 C-33.11201442 518.69742269 -35.21778497 520.2672325 -37.4375 521.8125 C-38.08203125 522.26536377 -38.7265625 522.71822754 -39.390625 523.18481445 C-44.10865615 526.46273514 -48.8724114 529.40269205 -54 532 C-55.05703125 532.56460938 -56.1140625 533.12921875 -57.203125 533.7109375 C-77.72372381 544.52650692 -99.59146321 547.22713719 -122.5 547.25 C-123.20487549 547.25100708 -123.90975098 547.25201416 -124.63598633 547.25305176 C-135.99772194 547.24211092 -146.89541112 546.50541772 -158 544 C-158.67305176 543.85546387 -159.34610352 543.71092773 -160.03955078 543.56201172 C-184.30286733 538.28381975 -208.60121359 528.84980773 -228 513 C-228.66 512.67 -229.32 512.34 -230 512 C-230 511.34 -230 510.68 -230 510 C-230.59039063 509.72671875 -231.18078125 509.4534375 -231.7890625 509.171875 C-235.72602956 507.08514334 -238.75493384 504.02335356 -242 501 C-242.49822266 500.54109375 -242.99644531 500.0821875 -243.50976562 499.609375 C-271.98520716 473.14597065 -288.93616626 438.36368419 -298 401 C-298.28875 399.83597656 -298.5775 398.67195313 -298.875 397.47265625 C-312.15061469 338.21639693 -304.39249675 269.90533225 -272 218 C-266.82206384 209.96021072 -261.10919029 202.35437557 -255 195 C-254.46503906 194.34128906 -253.93007812 193.68257812 -253.37890625 193.00390625 C-251.0273419 190.16370515 -248.68000241 187.63750195 -245.8125 185.3125 C-243.38098778 183.31325662 -241.84649791 181.49277217 -240 179 C-239.34 179 -238.68 179 -238 179 C-238 178.34 -238 177.68 -238 177 C-236.16154816 175.38448335 -234.32786814 173.9043049 -232.375 172.4375 C-231.78887939 171.99422363 -231.20275879 171.55094727 -230.59887695 171.09423828 C-188.91429314 139.97344202 -140.10061963 130.73938327 -89 138 C-83.53658164 138.94759028 -78.29387378 140.3415333 -73 142 C-71.85402344 142.33515625 -70.70804688 142.6703125 -69.52734375 143.015625 C-60.1586229 146.01530563 -52.09047689 150.71315739 -43.78076172 155.90332031 C-42.21259178 156.86907564 -40.61036741 157.7790639 -39.00390625 158.6796875 C-38.34261719 159.11539063 -37.68132813 159.55109375 -37 160 C-37 160.66 -37 161.32 -37 162 C-36.29875 162.2475 -35.5975 162.495 -34.875 162.75 C-31.60485452 164.17180238 -28.858878 165.87246288 -26 168 C-26 168.66 -26 169.32 -26 170 C-25.071875 170.4640625 -25.071875 170.4640625 -24.125 170.9375 C-22.75 171.625 -21.375 172.3125 -20 173 C-20 173.66 -20 174.32 -20 175 C-19.40670898 175.26876953 -18.81341797 175.53753906 -18.20214844 175.81445312 C-15.99459967 177.00290732 -14.53457118 178.20742389 -12.765625 179.96875 C-12.19199219 180.53980469 -11.61835938 181.11085938 -11.02734375 181.69921875 C-10.44082031 182.29347656 -9.85429687 182.88773438 -9.25 183.5 C-8.64800781 184.09425781 -8.04601563 184.68851563 -7.42578125 185.30078125 C-6.85730469 185.87183594 -6.28882812 186.44289063 -5.703125 187.03125 C-5.18395508 187.55267578 -4.66478516 188.07410156 -4.12988281 188.61132812 C-3 190 -3 190 -3 192 C-2.34 192 -1.68 192 -1 192 C-0.67 128.64 -0.34 65.28 0 0 Z M-134 241 C-134.67933594 241.30550781 -135.35867187 241.61101562 -136.05859375 241.92578125 C-142.2102034 244.73547017 -147.85237126 248.62830059 -153 253 C-153 253.66 -153 254.32 -153 255 C-153.556875 255.226875 -154.11375 255.45375 -154.6875 255.6875 C-157.66159588 257.37550036 -159.72008865 259.46676517 -162 262 C-162 262.66 -162 263.32 -162 264 C-162.57234375 264.21398437 -163.1446875 264.42796875 -163.734375 264.6484375 C-175.61268157 271.73446177 -183.61339811 294.36265248 -187 307 C-189.60250881 318.24195235 -190.56744109 328.98856255 -190.5 340.5 C-190.49890228 341.27737518 -190.49780457 342.05475037 -190.49667358 342.85568237 C-190.42355611 361.00576104 -187.97319155 377.552917 -180 394 C-179.65984863 394.72630615 -179.31969727 395.4526123 -178.96923828 396.20092773 C-176.57661539 401.2996085 -173.55561218 405.9637483 -170.48828125 410.6796875 C-169 413 -169 413 -168 415 C-167.34 415 -166.68 415 -166 415 C-165.7525 415.556875 -165.505 416.11375 -165.25 416.6875 C-162.31916133 422.10955154 -157.98885533 426.42424409 -153 430 C-152.34 430 -151.68 430 -151 430 C-151 430.66 -151 431.32 -151 432 C-135.96293687 443.63070801 -117.94542616 450.31594223 -99 451 C-98.23042969 451.03996094 -97.46085937 451.07992187 -96.66796875 451.12109375 C-77.11780627 451.67225919 -60.47625509 446.1641869 -44 436 C-43.40429199 435.63648438 -42.80858398 435.27296875 -42.19482422 434.8984375 C-40.75843877 433.98991845 -39.37305088 433.00166926 -38 432 C-38 431.34 -38 430.68 -38 430 C-37.13955078 429.62294922 -37.13955078 429.62294922 -36.26171875 429.23828125 C-20.14771759 420.41593519 -8.96826906 395.97677589 -4 379 C-3.22893251 376.15549161 -2.50788202 373.30140891 -1.8125 370.4375 C-1.64524414 369.75308838 -1.47798828 369.06867676 -1.30566406 368.36352539 C6.48142013 334.57801627 -1.66049423 300.11846586 -19.5625 271.125 C-22.06303546 267.26500312 -24.5702787 264.09511435 -28 261 C-28.57234375 260.39800781 -29.1446875 259.79601562 -29.734375 259.17578125 C-34.68932633 253.97308235 -39.97732341 249.89864866 -46 246 C-46.79277344 245.4740625 -47.58554688 244.948125 -48.40234375 244.40625 C-73.95627572 228.17101283 -107.25717766 227.20445392 -134 241 Z " fill="#0195A9" transform="translate(2391,542)"/>
<path d="M0 0 C35.31 0 70.62 0 107 0 C121.49416342 32.6118677 121.49416342 32.6118677 127.98828125 49.01953125 C131.2213642 57.17899856 134.50668599 65.245399 138.2578125 73.18359375 C142.27005603 81.83484262 145.82803398 90.7022535 149.52246094 99.4921875 C150.99021337 102.97676564 152.46621144 106.45772532 153.9453125 109.9375 C162.05209264 129.01759145 162.05209264 129.01759145 165.3125 137.3125 C167.50779634 142.87936895 169.95619162 148.2822461 172.50390625 153.6953125 C174.09662333 157.21342908 175.53329513 160.7790468 176.9375 164.375 C178.94576023 169.51191827 181.12539124 174.52196717 183.5 179.5 C186.19105311 185.14198295 188.59731277 190.84729089 190.87548828 196.66723633 C192.27458639 200.22828078 193.75332888 203.72252938 195.375 207.1875 C197.7695399 212.3384556 199.85300279 217.59342718 201.9375 222.875 C204.61469341 229.65297378 207.45012727 236.27716053 210.5703125 242.86328125 C212.45051919 246.98843417 214.09725046 251.19613854 215.75048828 255.4152832 C217.36919389 259.51266473 219.12436626 263.51427829 221 267.5 C223.13783098 272.04774954 225.09983285 276.63673218 226.9375 281.3125 C228.92227036 286.35838457 230.99315225 291.35337686 233.1875 296.3125 C236.34257694 303.44915467 239.40086874 310.6246823 242.4375 317.8125 C242.9111499 318.93358154 243.3847998 320.05466309 243.87280273 321.2097168 C245.99964119 326.24838978 248.12242229 331.28873784 250.23828125 336.33203125 C250.90878298 337.92971738 251.57935295 339.52737487 252.25 341.125 C252.7291687 342.26690796 252.7291687 342.26690796 253.21801758 343.43188477 C255.58429675 349.05416409 258.02939176 354.63916945 260.49487305 360.21850586 C262.4505265 364.67121468 264.28344517 369.16164035 266.0625 373.6875 C267.88384335 378.31917313 269.82159414 382.86890419 271.9375 387.375 C274.45130335 392.7321799 276.74299162 398.15810866 278.96801758 403.63916016 C282.40464292 412.06652404 286.02793251 420.41451581 289.64892578 428.76391602 C292.53957736 435.4635884 295.27607261 442.19450644 297.83203125 449.02929688 C299.49985363 453.27136685 301.45692179 457.36238779 303.3984375 461.484375 C305.20512242 465.45026873 306.86216195 469.46224617 308.5 473.5 C310.57094987 478.60339194 312.71674607 483.6395073 315.0625 488.625 C317.54179848 493.90094717 319.74855038 499.24391538 321.87768555 504.66723633 C323.56802993 508.96444482 325.37686143 513.18232622 327.3359375 517.36328125 C328 519 328 519 328 521 C288.4 521 248.8 521 208 521 C204.86639276 514.10606408 201.83125853 507.28158854 199.0625 500.25 C198.55046021 498.96029297 198.55046021 498.96029297 198.02807617 497.64453125 C197.33993592 495.91122266 196.65281898 494.1775074 195.96679688 492.44335938 C192.49372269 483.66595371 188.9856089 474.90496358 185.3359375 466.19921875 C183.47040055 461.7317487 181.63662631 457.2513541 179.79931641 452.7722168 C178.21601742 448.92201822 176.61483531 445.0804864 174.984375 441.25 C169.90056608 429.30492833 165.10685881 417.32057642 161 405 C89.06 405 17.12 405 -57 405 C-57.99 408.3 -58.98 411.6 -60 415 C-61.06691684 417.75641712 -62.15345582 420.47215596 -63.3125 423.1875 C-63.9317459 424.66244311 -64.55022043 426.13771028 -65.16796875 427.61328125 C-65.47524902 428.34498535 -65.7825293 429.07668945 -66.09912109 429.83056641 C-67.94490924 434.27546437 -69.68841885 438.76158891 -71.4453125 443.2421875 C-72.64955973 446.23180127 -73.98195013 449.14957398 -75.3359375 452.07421875 C-78.32163756 458.59394452 -80.91266581 465.25174149 -83.5 471.9375 C-86.5200495 479.71603086 -89.58478477 487.46492431 -92.81689453 495.15795898 C-95.03150113 500.47785899 -97.12483881 505.8468103 -99.22460938 511.21289062 C-99.55654297 512.05142578 -99.88847656 512.88996094 -100.23046875 513.75390625 C-100.52332764 514.49970947 -100.81618652 515.2455127 -101.11791992 516.01391602 C-102 518 -102 518 -104 521 C-106.07332802 521.36914349 -106.07332802 521.36914349 -108.68228149 521.36076355 C-109.66948685 521.36488754 -110.6566922 521.36901154 -111.67381287 521.3732605 C-112.76065872 521.36247467 -113.84750458 521.35168884 -114.96728516 521.34057617 C-116.67947487 521.34123329 -116.67947487 521.34123329 -118.42625427 521.34190369 C-122.21402866 521.33980709 -126.00136506 521.31643446 -129.7890625 521.29296875 C-132.4093705 521.28737591 -135.02968164 521.28310434 -137.6499939 521.28010559 C-143.85133915 521.27077245 -150.05252619 521.24614169 -156.2538017 521.21605712 C-163.31294174 521.18255242 -170.37208924 521.16603703 -177.43128896 521.15097082 C-191.95427434 521.11959312 -206.47713496 521.0668081 -221 521 C-220.52290849 519.55552413 -220.0446838 518.11142249 -219.565979 516.66748047 C-219.29978886 515.86325653 -219.03359871 515.05903259 -218.75934219 514.23043823 C-217.93561921 511.8108924 -217.00833098 509.46666128 -215.984375 507.125 C-215.62384033 506.29355469 -215.26330566 505.46210937 -214.8918457 504.60546875 C-214.51503662 503.74566406 -214.13822754 502.88585938 -213.75 502 C-210.86837514 495.35975953 -208.03616218 488.70659399 -205.3125 482 C-203.32821772 477.12338363 -201.25267873 472.32343843 -199 467.5625 C-196.59542816 462.45278483 -194.51136847 457.27243944 -192.5 452 C-190.14646726 445.83819685 -187.59894981 439.85175861 -184.77734375 433.88671875 C-180.74854805 425.21424338 -177.18210631 416.32187271 -173.47753906 407.5078125 C-172.00978663 404.02323436 -170.53378856 400.54227468 -169.0546875 397.0625 C-163.24688893 383.42612019 -163.24688893 383.42612019 -157.6875 369.6875 C-156.01470568 365.45353471 -154.25133545 361.30615609 -152.3125 357.1875 C-147.67917411 347.32496116 -143.55873828 337.23416184 -139.33984375 327.18945312 C-138.12482617 324.29714451 -136.90699711 321.4060471 -135.6875 318.515625 C-132.94566991 312.01567333 -130.20947925 305.51351635 -127.5 299 C-126.66686585 296.99991702 -125.83350588 294.9999281 -125 293 C-124.70625488 292.29375488 -124.41250977 291.58750977 -124.10986328 290.85986328 C-117.43253816 274.82298238 -117.43253816 274.82298238 -113.9375 267.375 C-111.03532616 261.17952376 -108.44194693 254.87980283 -105.859375 248.546875 C-97.78774943 228.75670097 -97.78774943 228.75670097 -93.5 219.5625 C-91.15190857 214.49473365 -89.11385218 209.31773941 -87.0625 204.125 C-84.40175908 197.39230331 -81.58258927 190.79334927 -78.48828125 184.24609375 C-76.11910722 179.07868268 -74.00580431 173.80971496 -71.859375 168.546875 C-63.78774943 148.75670097 -63.78774943 148.75670097 -59.5 139.5625 C-57.15190501 134.49472597 -55.11395104 129.31770556 -53.0625 124.125 C-50.46362562 117.55204863 -47.7172473 111.11237508 -44.69140625 104.72265625 C-41.84467264 98.57617942 -39.3392326 92.27519577 -36.75146484 86.0168457 C-34.31316548 80.12804462 -31.83298991 74.26424468 -29.25 68.4375 C-27.03337405 63.43696601 -24.9384642 58.40237546 -22.9375 53.3125 C-20.68406697 47.58208733 -18.18143296 42.00564643 -15.5625 36.43359375 C-13.51550355 31.93531906 -11.64318947 27.3741901 -9.79907227 22.78955078 C-6.69355707 15.11396057 -3.32499261 7.59998311 0 0 Z M51 140 C50.62488281 140.95519531 50.24976563 141.91039062 49.86328125 142.89453125 C45.23242603 154.61647881 45.23242603 154.61647881 42.625 160.125 C40.15141723 165.43803308 38.11642587 170.89032494 36.0625 176.375 C33.44741473 183.35649631 30.64843172 190.10746562 27.4296875 196.83203125 C25.47551581 201.16217672 23.8750288 205.59836761 22.24951172 210.05981445 C20.68394232 214.30827004 18.94543957 218.40647091 17 222.5 C14.19011727 228.41977899 11.90130534 234.4294033 9.6875 240.58984375 C8.34151255 244.21619446 6.83158485 247.75822262 5.296875 251.30859375 C2.85921856 256.95113563 0.50521531 262.62117121 -1.796875 268.3203125 C-2.12006714 269.12040237 -2.44325928 269.92049225 -2.77624512 270.74482727 C-4.10924667 274.04891014 -5.43967876 277.35402477 -6.77001953 280.65917969 C-7.75679476 283.10926806 -8.74551994 285.55856297 -9.734375 288.0078125 C-10.03333679 288.75257843 -10.33229858 289.49734436 -10.64031982 290.26467896 C-11.74462031 292.99905244 -12.8411043 295.69490221 -14.20410156 298.31201172 C-15.21323867 300.14121328 -15.21323867 300.14121328 -15 303 C29.22 303 73.44 303 119 303 C116.43493652 294.44241854 116.43493652 294.44241854 113.29296875 286.20703125 C112.79168457 285.0070752 112.29040039 283.80711914 111.77392578 282.57080078 C111.2451198 281.31803275 110.71631116 280.06526585 110.1875 278.8125 C109.37136235 276.86294988 108.55706903 274.91263605 107.74285889 272.96228027 C107.21253696 271.69227012 106.68166156 270.42249092 106.15020752 269.1529541 C103.09272998 261.84641189 100.16310674 254.49129275 97.26025391 247.12207031 C93.60028207 237.82519203 93.60028207 237.82519203 89.5625 228.6875 C86.9771382 223.11774951 84.78931937 217.41479926 82.58618164 211.68652344 C80.57185254 206.45287946 78.47996636 201.26132903 76.30078125 196.09375 C74.74096851 192.38392511 73.21446477 188.66093507 71.6875 184.9375 C69.81163318 180.36407587 67.92039093 175.79833685 65.984375 171.25 C65.47777344 170.0587854 65.47777344 170.0587854 64.9609375 168.84350586 C64.28209326 167.24760654 63.60241418 165.65206205 62.921875 164.05688477 C61.27475355 160.16065437 59.70178531 156.2566355 58.265625 152.27734375 C57.99758057 151.53492432 57.72953613 150.79250488 57.45336914 150.02758789 C56.9545871 148.62568759 56.46623037 147.2200202 55.98999023 145.81030273 C55.41090631 144.17455521 54.71470421 142.58120399 54 141 C53.01 140.67 52.02 140.34 51 140 Z " fill="#0195A9" transform="translate(1764,561)"/>
<path d="M0 0 C0.6659317 0.06430206 1.3318634 0.12860413 2.01797485 0.19485474 C38.84216635 3.82173303 71.22231381 16.54887355 99.94140625 40.0859375 C101.36729228 41.24660348 102.83594431 42.35643167 104.33984375 43.4140625 C105.19255859 44.10628906 105.19255859 44.10628906 106.0625 44.8125 C106.0625 45.4725 106.0625 46.1325 106.0625 46.8125 C107.3825 47.4725 108.7025 48.1325 110.0625 48.8125 C110.0625 49.4725 110.0625 50.1325 110.0625 50.8125 C111.3825 51.4725 112.7025 52.1325 114.0625 52.8125 C114.0625 53.4725 114.0625 54.1325 114.0625 54.8125 C114.7225 54.8125 115.3825 54.8125 116.0625 54.8125 C117.85501379 56.87962448 119.5308528 58.95262791 121.1875 61.125 C121.68032471 61.7636499 122.17314941 62.4022998 122.6809082 63.06030273 C124.14972025 64.97154817 125.60775144 66.89053665 127.0625 68.8125 C127.79597656 69.77671875 128.52945313 70.7409375 129.28515625 71.734375 C136.54405248 81.48986973 142.95628338 91.76991498 148.0625 102.8125 C148.60648438 103.95847656 149.15046875 105.10445312 149.7109375 106.28515625 C154.59844548 116.82578294 157.95345722 127.63530505 161.0625 138.8125 C161.44765585 140.16023081 161.8330539 141.50789245 162.21875 142.85546875 C164.69449159 151.75500955 166.59550754 160.69866494 168.0625 169.8125 C168.20075195 170.63202148 168.33900391 171.45154297 168.48144531 172.29589844 C170.65398773 185.52241517 171.33606357 198.56101251 171.3125 211.9375 C171.31133682 213.04189926 171.31133682 213.04189926 171.31015015 214.16860962 C171.22971781 240.47806438 171.22971781 240.47806438 169.0625 244.8125 C78.6425 244.8125 -11.7775 244.8125 -104.9375 244.8125 C-96.90246429 270.52461427 -87.11044977 294.93201915 -62.01928711 308.08056641 C-45.0505479 316.59379103 -28.71423007 320.40251393 -9.8125 320.25 C-9.04835785 320.24795563 -8.2842157 320.24591125 -7.49691772 320.24380493 C22.26154058 320.11434765 46.08208837 310.69993766 70.13671875 293.0625 C72.0625 291.8125 72.0625 291.8125 74.0625 291.8125 C74.3925 290.8225 74.7225 289.8325 75.0625 288.8125 C77.2421875 286.76953125 77.2421875 286.76953125 79.9375 284.625 C80.82179688 283.90957031 81.70609375 283.19414063 82.6171875 282.45703125 C85.0625 280.8125 85.0625 280.8125 88.0625 280.8125 C88.0625 281.4725 88.0625 282.1325 88.0625 282.8125 C88.62839844 283.05871094 89.19429687 283.30492187 89.77734375 283.55859375 C92.45498258 285.02786224 94.39293612 286.79002435 96.625 288.875 C101.25105228 293.1356562 106.0626357 297.08130463 111.0078125 300.96484375 C111.68585937 301.57457031 112.36390625 302.18429687 113.0625 302.8125 C113.0625 303.4725 113.0625 304.1325 113.0625 304.8125 C113.8978125 305.18375 113.8978125 305.18375 114.75 305.5625 C117.48660913 307.04174818 119.73900869 308.74717439 122.0625 310.8125 C122.0625 311.4725 122.0625 312.1325 122.0625 312.8125 C122.8978125 313.18375 122.8978125 313.18375 123.75 313.5625 C126.48660913 315.04174818 128.73900869 316.74717439 131.0625 318.8125 C131.0625 319.4725 131.0625 320.1325 131.0625 320.8125 C131.61035156 321.05355469 132.15820312 321.29460937 132.72265625 321.54296875 C135.61039508 323.10977196 137.96634057 325.03411601 140.5 327.125 C141.42683594 327.88425781 142.35367188 328.64351562 143.30859375 329.42578125 C146.03532582 331.78894904 148.63271714 334.14328599 151.0625 336.8125 C150.875 339.125 150.875 339.125 150.0625 340.8125 C149.4025 340.8125 148.7425 340.8125 148.0625 340.8125 C147.835625 341.35519531 147.60875 341.89789062 147.375 342.45703125 C145.66975564 345.51733586 143.43495248 347.9525205 141.0625 350.5 C140.57918213 351.02239258 140.09586426 351.54478516 139.59790039 352.08300781 C135.04586141 356.93950375 130.33071053 361.72989458 125.0625 365.8125 C124.4025 365.8125 123.7425 365.8125 123.0625 365.8125 C122.7325 366.8025 122.4025 367.7925 122.0625 368.8125 C116.03295043 374.07119647 109.18711593 378.49884039 102.5 382.875 C101.60728394 383.46595459 101.60728394 383.46595459 100.6965332 384.06884766 C96.42146865 386.8125 96.42146865 386.8125 93.0625 386.8125 C93.0625 387.4725 93.0625 388.1325 93.0625 388.8125 C64.68848634 403.2671862 34.33418053 411.94154984 2.33984375 411.98046875 C1.35488419 411.98379715 0.36992462 411.98712555 -0.6448822 411.99055481 C-2.71629373 411.99558119 -4.78771324 411.99796448 -6.85913086 411.99780273 C-9.96807798 411.99997767 -13.07666278 412.01814826 -16.18554688 412.03710938 C-32.56868016 412.0851923 -48.36063859 411.13930506 -64.3125 407.125 C-65.36703369 406.86444824 -66.42156738 406.60389648 -67.50805664 406.33544922 C-89.21274389 400.81395221 -109.77271381 392.39764407 -128.9375 380.8125 C-128.9375 380.1525 -128.9375 379.4925 -128.9375 378.8125 C-129.9275 378.4721875 -129.9275 378.4721875 -130.9375 378.125 C-134.82408628 376.4246185 -138.57429817 374.41626916 -141.9375 371.8125 C-141.9375 371.1525 -141.9375 370.4925 -141.9375 369.8125 C-142.68153076 369.55218994 -143.42556152 369.29187988 -144.19213867 369.02368164 C-146.99692175 367.78628468 -148.65302217 366.5305781 -150.86328125 364.43359375 C-151.57427979 363.76344238 -152.28527832 363.09329102 -153.01782227 362.40283203 C-153.75444092 361.69239746 -154.49105957 360.98196289 -155.25 360.25 C-156.00531006 359.52925293 -156.76062012 358.80850586 -157.53881836 358.06591797 C-168.6508319 347.3804116 -168.6508319 347.3804116 -171.9375 342.8125 C-171.9375 342.1525 -171.9375 341.4925 -171.9375 340.8125 C-172.5975 340.8125 -173.2575 340.8125 -173.9375 340.8125 C-174.5975 339.1625 -175.2575 337.5125 -175.9375 335.8125 C-176.5975 335.8125 -177.2575 335.8125 -177.9375 335.8125 C-179.453125 333.72265625 -179.453125 333.72265625 -181.1875 330.875 C-183.31975531 327.41337563 -185.47393039 324.01244953 -187.8125 320.6875 C-199.68411928 302.84849763 -207.58603469 282.71561904 -212.44238281 261.92578125 C-212.88677074 260.0290249 -213.35955158 258.13897372 -213.8359375 256.25 C-220.36494871 228.84108164 -220.38263485 196.60063237 -215.9375 168.8125 C-215.80859375 168.00538574 -215.6796875 167.19827148 -215.546875 166.36669922 C-213.45254635 153.82254323 -210.11125558 141.81450327 -205.9375 129.8125 C-205.53660156 128.65234375 -205.13570312 127.4921875 -204.72265625 126.296875 C-199.64869126 112.42462055 -192.42079055 99.50588641 -184.9375 86.8125 C-184.40769531 85.85730469 -183.87789062 84.90210938 -183.33203125 83.91796875 C-182.64173828 82.87576172 -182.64173828 82.87576172 -181.9375 81.8125 C-181.2775 81.8125 -180.6175 81.8125 -179.9375 81.8125 C-179.71449219 81.11769531 -179.49148437 80.42289063 -179.26171875 79.70703125 C-177.62669413 76.13312788 -175.31946826 73.4235509 -172.75 70.5 C-172.25459717 69.92677002 -171.75919434 69.35354004 -171.2487793 68.76293945 C-170.26245429 67.62333964 -169.27334673 66.48614121 -168.28125 65.3515625 C-167.15787937 64.06491126 -166.04622783 62.76804042 -164.9375 61.46875 C-132.96895089 24.17210937 -88.00140953 4.48312685 -39.9375 -0.1875 C-39.06013184 -0.28466309 -38.18276367 -0.38182617 -37.27880859 -0.48193359 C-24.7958351 -1.78837082 -12.46796966 -1.21494132 0 0 Z M-66.9375 102.8125 C-67.5975 103.1425 -68.2575 103.4725 -68.9375 103.8125 C-68.9375 104.4725 -68.9375 105.1325 -68.9375 105.8125 C-70.03964844 106.18375 -70.03964844 106.18375 -71.1640625 106.5625 C-85.09713035 112.84219255 -94.37466576 132.48607599 -99.671875 146.1328125 C-104.90525753 159.65623928 -104.90525753 159.65623928 -106.9375 173.8125 C-51.4975 173.8125 3.9425 173.8125 61.0625 173.8125 C58.46473461 160.82367304 56.3132592 150.50419048 51.0625 138.8125 C50.05579198 136.48199693 49.05966555 134.14711014 48.0625 131.8125 C47.4025 131.8125 46.7425 131.8125 46.0625 131.8125 C45.94390625 131.23371094 45.8253125 130.65492188 45.703125 130.05859375 C43.95516276 123.9300676 39.63723842 119.06807063 35.0625 114.8125 C34.20011719 113.90371094 34.20011719 113.90371094 33.3203125 112.9765625 C18.9105179 97.87231996 1.40348817 90.90698639 -19.2421875 90.3371582 C-37.35618319 90.20005437 -51.09474228 94.17997491 -66.9375 102.8125 Z " fill="#0195A9" transform="translate(2776.9375,678.1875)"/>
<path d="M0 0 C37.62 0 75.24 0 114 0 C114 131.01 114 262.02 114 397 C76.38 397 38.76 397 0 397 C0 265.99 0 134.98 0 0 Z " fill="#0396AA" transform="translate(3665,685)"/>
<path d="M0 0 C39.27 0 78.54 0 119 0 C119 33.33 119 66.66 119 101 C79.73 101 40.46 101 0 101 C0 67.67 0 34.34 0 0 Z " fill="#0296A9" transform="translate(3663,542)"/>
<path d="M0 0 C0.82218018 0.17805176 1.64436035 0.35610352 2.49145508 0.53955078 C3.38413086 0.72646484 4.27680664 0.91337891 5.1965332 1.10595703 C6.12530273 1.31349609 7.05407227 1.52103516 8.01098633 1.73486328 C8.95135742 1.93466797 9.89172852 2.13447266 10.8605957 2.34033203 C13.18419724 2.83571916 15.50467368 3.34260187 17.82348633 3.85986328 C17.82348633 4.18986328 17.82348633 4.51986328 17.82348633 4.85986328 C2.07861161 4.08082 2.07861161 4.08082 -5.17651367 1.85986328 C-2.17651367 -0.14013672 -2.17651367 -0.14013672 0 0 Z " fill="#5ABBC9" transform="translate(1054.176513671875,988.14013671875)"/>
<path d="M0 0 C-3.98434396 2.65622931 -6.45331629 4.17509627 -11.3125 3.625 C-12.199375 3.41875 -13.08625 3.2125 -14 3 C-14 2.67 -14 2.34 -14 2 C-4.58997722 -0.29612756 -4.58997722 -0.29612756 0 0 Z " fill="#69C0CC" transform="translate(978,991)"/>
<path d="M0 0 C2.97 0.33 5.94 0.66 9 1 C4.82091936 3.08954032 4.19589427 3.16552619 0 2 C0 1.34 0 0.68 0 0 Z " fill="#6FC3CF" transform="translate(748,1116)"/>
</svg>
